<mxfile host="app.diagrams.net" modified="2023-12-09T02:23:48.100Z" agent="Mozilla/5.0 (Macintosh; Intel Mac OS X 10_15_7) AppleWebKit/537.36 (KHTML, like Gecko) Chrome/120.0.0.0 Safari/537.36" version="22.1.7" etag="KP5iDk9M2wJM-9c83bU4" type="github">
  <diagram name="ページ1" id="3q5VQZyPnmqKOkmvxHrD">
    <mxGraphModel>
      <root>
        <mxCell id="0" />
        <mxCell id="1" parent="0" />
      </root>
    </mxGraphModel>
  </diagram>
</mxfile>
